<?xml version="1.0" encoding="utf-8"?>
<!-- Generator: Adobe Illustrator 16.0.0, SVG Export Plug-In . SVG Version: 6.00 Build 0)  -->
<!DOCTYPE svg PUBLIC "-//W3C//DTD SVG 1.1//EN" "http://www.w3.org/Graphics/SVG/1.1/DTD/svg11.dtd">
<svg version="1.1" id="Layer_1" xmlns="http://www.w3.org/2000/svg" xmlns:xlink="http://www.w3.org/1999/xlink" x="0px" y="0px"
	 width="888px" height="275px" viewBox="-80 0 888 275" enable-background="new -80 0 888 275" xml:space="preserve">
<desc  version="4.6" codePlatform="0" snapToGrid="no" showGrid="no" gridStep="20" iVinci="yes"></desc>
<g id="Layer1">
	<g id="Shape1">
		
			<desc  text="" transform="matrix(0.534522,0,0,0.498833,152.669,135.265)" type="0" flag="" mesh="" locked="0" pers-end="0,0" pers-start="0,0" pers-size="0,0" pers-center="0,0" blurRadius="4" blurEnabled="0" shadowOpacity="160" shadowBlur="4" shadowOffsetY="2" shadowOffsetX="0" shadowEnabled="0" markerEnd="0" markerStart="0" strokeStyle="0" font-alignment="1" font-underline="0" font-bold="0" font-pixelSize="20" font-familyName="Helvetica" bounding="rect(-155.501,-155.5,311.001,311)" shapeID="1" basicInfo-starPoints="5" basicInfo-polygonSides="6" basicInfo-roundedRectRadius="12" basicInfo-basicType="1">
			</desc>
		<path id="shapePath1" fill="#E22B4A" d="M69.55,57.697h166.238v155.137H69.55V57.697z"/>
	</g>
	<g id="Shape2">
		
			<desc  text="" transform="matrix(0.48931,0,0,0.528576,125.844,99.7184)" type="0" flag="" mesh="" locked="0" pers-end="0,0" pers-start="0,0" pers-size="0,0" pers-center="0,0" blurRadius="4" blurEnabled="0" shadowOpacity="160" shadowBlur="4" shadowOffsetY="2" shadowOffsetX="0" shadowEnabled="0" markerEnd="0" markerStart="0" strokeStyle="0" font-alignment="1" font-underline="0" font-bold="0" font-pixelSize="20" font-familyName="Helvetica" bounding="rect(-87.5,-54.5,175,109)" shapeID="2" basicInfo-starPoints="5" basicInfo-polygonSides="6" basicInfo-roundedRectRadius="12" basicInfo-basicType="1">
			</desc>
		<path id="shapePath2" fill="#F7CB34" d="M83.029,70.911h85.629v57.615H83.029V70.911z"/>
	</g>
	<g id="Shape3">
		
			<desc  text="" transform="matrix(0.795882,0,0,0.528576,152.669,170.548)" type="0" flag="" mesh="" locked="0" pers-end="0,0" pers-start="0,0" pers-size="0,0" pers-center="0,0" blurRadius="4" blurEnabled="0" shadowOpacity="160" shadowBlur="4" shadowOffsetY="2" shadowOffsetX="0" shadowEnabled="0" markerEnd="0" markerStart="0" strokeStyle="0" font-alignment="1" font-underline="0" font-bold="0" font-pixelSize="20" font-familyName="Helvetica" bounding="rect(-87.5004,-54.5,175,109)" shapeID="3" basicInfo-starPoints="5" basicInfo-polygonSides="6" basicInfo-roundedRectRadius="12" basicInfo-basicType="1">
			</desc>
		<path id="shapePath3" fill="#F7CB34" d="M83.029,141.74h139.28v57.615H83.029V141.74z"/>
	</g>
	<g id="Shape4">
		<desc  text="Flex Grid
" transform="matrix(1,0,0,1,441.52,102.853)" type="2" flag="" mesh="" locked="0" pers-end="0,0" pers-start="0,0" pers-size="0,0" pers-center="0,0" blurRadius="4" blurEnabled="0" shadowOpacity="160" shadowBlur="4" shadowOffsetY="2" shadowOffsetX="0" shadowEnabled="0" markerEnd="0" markerStart="0" strokeStyle="0" font-alignment="0" font-underline="0" font-bold="0" font-pixelSize="72" font-familyName="Open Sans" bounding="rect(-192.613,-25.9911,385.226,51.9821)" shapeID="4" basicInfo-starPoints="5" basicInfo-polygonSides="6" basicInfo-roundedRectRadius="12" basicInfo-basicType="0"></desc>
		<path id="shapePath4" d="M266.102,129.822h-10.723V78.424h29.461v8.93h-18.738v13.253h17.437v8.895h-17.437V129.822
			 M304.773,129.822h-10.723V75.119h10.723V129.822 M332.297,97.408c-2.273,0-4.055,0.721-5.344,2.162
			c-1.289,1.442-2.027,3.487-2.215,6.135h15.047c-0.047-2.648-0.738-4.693-2.074-6.135C336.375,98.129,334.57,97.408,332.297,97.408
			 M333.809,130.525c-6.327,0-11.273-1.746-14.836-5.238c-3.562-3.492-5.344-8.437-5.344-14.836c0-6.586,1.646-11.678,4.939-15.275
			s7.846-5.396,13.658-5.396c5.555,0,9.88,1.582,12.973,4.746c3.094,3.164,4.641,7.535,4.641,13.114v5.203h-25.348
			c0.117,3.047,1.02,5.426,2.707,7.136c1.688,1.711,4.055,2.567,7.102,2.567c2.367,0,4.605-0.246,6.715-0.738
			c2.109-0.493,4.312-1.278,6.609-2.356v8.297c-1.875,0.937-3.879,1.635-6.012,2.092
			C339.481,130.297,336.879,130.525,333.809,130.525 M365.164,109.748l-12.656-19.23h12.164l7.629,12.516L380,90.518h12.164
			l-12.797,19.23l13.395,20.074h-12.199l-8.262-13.465l-8.297,13.465H351.84L365.164,109.748 M437.797,100.959h20.391v26.648
			c-3.305,1.078-6.415,1.834-9.334,2.268c-2.918,0.434-5.9,0.65-8.947,0.65c-7.758,0-13.682-2.279-17.771-6.838
			c-4.09-4.558-6.135-11.103-6.135-19.634c0-8.297,2.373-14.766,7.119-19.407s11.326-6.961,19.74-6.961
			c5.273,0,10.359,1.055,15.258,3.164l-3.621,8.719c-3.75-1.875-7.652-2.812-11.707-2.812c-4.711,0-8.484,1.582-11.32,4.746
			s-4.254,7.418-4.254,12.762c0,5.578,1.143,9.837,3.428,12.779c2.285,2.941,5.607,4.412,9.967,4.412
			c2.273,0,4.582-0.234,6.926-0.703v-10.723h-9.738V100.959 M491.504,89.779c1.453,0,2.66,0.105,3.621,0.316l-0.809,10.054
			c-0.867-0.234-1.922-0.351-3.164-0.351c-3.421,0-6.087,0.879-7.998,2.636c-1.91,1.758-2.865,4.219-2.865,7.383v20.004h-10.723
			V90.518h8.121l1.582,6.609h0.527c1.219-2.203,2.865-3.979,4.939-5.326S489.066,89.779,491.504,89.779 M501.797,80.357
			c0-3.492,1.945-5.238,5.836-5.238s5.836,1.746,5.836,5.238c0,1.664-0.486,2.959-1.459,3.885s-2.432,1.389-4.377,1.389
			C503.742,85.631,501.797,83.873,501.797,80.357 M512.977,129.822h-10.723V90.518h10.723V129.822 M536.668,130.525
			c-4.617,0-8.244-1.793-10.881-5.379s-3.955-8.554-3.955-14.906c0-6.445,1.342-11.467,4.025-15.064s6.381-5.396,11.092-5.396
			c4.945,0,8.719,1.922,11.32,5.766h0.352c-0.539-2.93-0.809-5.543-0.809-7.84V75.119h10.758v54.703h-8.227l-2.074-5.097h-0.457
			C545.375,128.592,541.66,130.525,536.668,130.525 M540.43,121.982c2.742,0,4.752-0.797,6.029-2.39
			c1.277-1.594,1.975-4.301,2.092-8.121v-1.161c0-4.218-0.65-7.242-1.951-9.07c-1.301-1.828-3.416-2.742-6.346-2.742
			c-2.391,0-4.248,1.014-5.572,3.041c-1.324,2.027-1.986,4.975-1.986,8.842c0,3.867,0.668,6.767,2.004,8.701
			S537.945,121.982,540.43,121.982z"/>
	</g>
	<g id="Shape5">
		
			<desc  text="Framework" transform="matrix(1,0,0,1,453.66,165.583)" type="2" flag="" mesh="" locked="0" pers-end="0,0" pers-start="0,0" pers-size="0,0" pers-center="0,0" blurRadius="4" blurEnabled="0" shadowOpacity="160" shadowBlur="4" shadowOffsetY="2" shadowOffsetX="0" shadowEnabled="0" markerEnd="0" markerStart="0" strokeStyle="0" font-alignment="1" font-underline="0" font-bold="0" font-pixelSize="72" font-familyName="Open Sans" bounding="rect(-158.665,-31.8154,317.329,63.6305)" shapeID="5" basicInfo-starPoints="5" basicInfo-polygonSides="6" basicInfo-roundedRectRadius="12" basicInfo-basicType="0">
			</desc>
		<path id="shapePath5" d="M266.071,192.723h-10.723v-51.397h29.461v8.93h-18.738v13.254h17.437v8.894h-17.437V192.723
			 M315.957,152.68c1.453,0,2.66,0.106,3.621,0.317l-0.809,10.055c-0.866-0.235-1.922-0.352-3.163-0.352
			c-3.423,0-6.089,0.879-7.998,2.637c-1.91,1.757-2.866,4.218-2.866,7.382v20.004H294.02v-39.304h8.121l1.582,6.608h0.527
			c1.219-2.202,2.866-3.978,4.94-5.325C311.264,153.354,313.52,152.68,315.957,152.68 M350.231,192.723l-2.074-5.343h-0.282
			c-1.804,2.272-3.662,3.849-5.572,4.728s-4.399,1.319-7.471,1.319c-3.773,0-6.744-1.079-8.912-3.235
			c-2.168-2.155-3.252-5.226-3.252-9.211c0-4.172,1.459-7.248,4.377-9.228c2.918-1.981,7.319-3.076,13.201-3.287l6.821-0.211v-1.723
			c0-3.984-2.039-5.978-6.117-5.978c-3.142,0-6.833,0.95-11.075,2.848l-3.55-7.241c4.522-2.367,9.539-3.552,15.046-3.552
			c5.273,0,9.316,1.149,12.129,3.445c2.812,2.297,4.219,5.789,4.219,10.478v26.19H350.231 M347.067,174.512l-4.149,0.141
			c-3.117,0.095-5.437,0.656-6.961,1.688c-1.523,1.031-2.285,2.601-2.285,4.711c0,3.023,1.735,4.535,5.203,4.535
			c2.485,0,4.471-0.715,5.959-2.146c1.489-1.43,2.233-3.327,2.233-5.694V174.512 M403.946,192.723h-10.724v-22.957
			c0-2.836-0.475-4.963-1.424-6.381c-0.949-1.417-2.442-2.126-4.481-2.126c-2.742,0-4.735,1.007-5.978,3.023
			c-1.242,2.016-1.863,5.332-1.863,9.948v18.492h-10.723v-39.304h8.192l1.44,5.026h0.599c1.054-1.805,2.577-3.217,4.569-4.235
			c1.992-1.021,4.277-1.53,6.855-1.53c5.883,0,9.868,1.922,11.954,5.766h0.948c1.055-1.827,2.607-3.245,4.658-4.254
			c2.052-1.008,4.365-1.512,6.943-1.512c4.453,0,7.823,1.144,10.108,3.428c2.284,2.285,3.428,5.947,3.428,10.986v25.629h-10.758
			v-22.957c0-2.836-0.476-4.963-1.425-6.381c-0.948-1.417-2.442-2.126-4.482-2.126c-2.625,0-4.587,0.937-5.888,2.812
			c-1.302,1.875-1.951,4.853-1.951,8.931V192.723 M455.719,160.309c-2.272,0-4.055,0.721-5.344,2.162
			c-1.289,1.442-2.027,3.487-2.215,6.135h15.047c-0.047-2.647-0.738-4.692-2.074-6.135
			C459.797,161.029,457.992,160.309,455.719,160.309 M457.231,193.427c-6.328,0-11.274-1.747-14.837-5.239
			s-5.344-8.437-5.344-14.836c0-6.586,1.647-11.677,4.94-15.274c3.293-3.599,7.845-5.397,13.658-5.397
			c5.554,0,9.879,1.582,12.972,4.747c3.094,3.164,4.641,7.535,4.641,13.113v5.203h-25.348c0.118,3.047,1.02,5.426,2.707,7.137
			s4.055,2.565,7.102,2.565c2.367,0,4.605-0.245,6.715-0.737s4.312-1.278,6.609-2.356v8.297c-1.875,0.938-3.879,1.636-6.012,2.093
			C462.903,193.198,460.301,193.427,457.231,193.427 M512.844,192.723l-3.022-13.746l-4.079-17.367h-0.246l-7.171,31.113h-11.532
			l-11.179-39.304h10.687l4.535,17.401c0.727,3.117,1.465,7.419,2.215,12.902h0.211c0.095-1.781,0.504-4.604,1.23-8.472l0.562-2.989
			l4.853-18.843h11.812l4.606,18.843c0.093,0.516,0.24,1.278,0.438,2.286c0.199,1.007,0.394,2.08,0.58,3.216
			c0.188,1.137,0.357,2.25,0.51,3.34s0.24,1.963,0.264,2.619h0.211c0.211-1.687,0.586-4.002,1.125-6.943
			c0.539-2.94,0.926-4.928,1.161-5.959l4.711-17.401h10.511l-11.32,39.304H512.844 M550.703,173.001c0,3.89,0.639,6.832,1.916,8.824
			c1.277,1.991,3.357,2.987,6.241,2.987c2.858,0,4.916-0.989,6.17-2.97c1.254-1.981,1.88-4.928,1.88-8.842
			c0-3.892-0.632-6.81-1.898-8.754c-1.266-1.945-3.34-2.918-6.223-2.918c-2.859,0-4.922,0.967-6.188,2.899
			C551.336,166.163,550.703,169.087,550.703,173.001 M577.879,173.001c0,6.397-1.687,11.401-5.062,15.011
			c-3.375,3.61-8.075,5.415-14.099,5.415c-3.772,0-7.102-0.827-9.983-2.479c-2.884-1.652-5.099-4.025-6.646-7.119
			c-1.547-3.095-2.32-6.703-2.32-10.828c0-6.422,1.677-11.414,5.027-14.978c3.353-3.562,8.063-5.344,14.133-5.344
			c3.773,0,7.103,0.821,9.984,2.461c2.883,1.642,5.098,3.996,6.645,7.067C577.106,165.277,577.879,168.876,577.879,173.001
			 M608.676,152.68c1.453,0,2.66,0.106,3.621,0.317l-0.808,10.055c-0.868-0.235-1.922-0.352-3.164-0.352
			c-3.422,0-6.088,0.879-7.999,2.637c-1.91,1.757-2.865,4.218-2.865,7.382v20.004h-10.722v-39.304h8.121l1.582,6.608h0.526
			c1.219-2.202,2.865-3.978,4.94-5.325C603.983,153.354,606.239,152.68,608.676,152.68 M629.727,171.348l4.677-5.976l11.004-11.953
			H657.5l-15.609,17.05l16.56,22.254h-12.375l-11.321-15.925l-4.604,3.691v12.233h-10.724V138.02h10.724v24.399l-0.563,8.929
			H629.727z"/>
	</g>
</g>
</svg>
