<svg xmlns="http://www.w3.org/2000/svg" width="540" height="150"><path d="M6.34 7.327h145.03v135.346H6.34V7.327z" fill-rule="evenodd" fill="#e22b4a"/><path d="M18.1 18.856h74.705V69.12H18.1V18.856z" fill-rule="evenodd" fill="#f7cb34"/><path d="M18.1 80.65h121.512v50.264H18.1V80.65z" fill-rule="evenodd" fill="#f7cb34"/><g><path class="bar" d="M179.604 70.687h-9.68V24.285h26.596v8.062h-16.916v11.965h15.742v8.03h-15.742v18.345m34.91 0h-9.68V21.302h9.68v49.385m24.843-29.263c-2.053 0-3.66.65-4.825 1.952-1.163 1.3-1.83 3.147-2 5.538h13.585c-.043-2.39-.667-4.237-1.873-5.538-1.206-1.3-2.835-1.952-4.887-1.952m1.364 29.897c-5.712 0-10.176-1.575-13.392-4.728-3.216-3.152-4.824-7.617-4.824-13.393 0-5.947 1.486-10.544 4.46-13.79 2.972-3.25 7.082-4.873 12.33-4.873 5.014 0 8.918 1.428 11.71 4.284 2.793 2.858 4.19 6.804 4.19 11.84v4.697H232.31c.106 2.75.92 4.898 2.445 6.443 1.523 1.545 3.66 2.317 6.41 2.317 2.138 0 4.158-.222 6.063-.667 1.904-.444 3.893-1.153 5.966-2.126v7.49c-1.692.847-3.5 1.476-5.427 1.89-1.925.41-4.274.617-7.046.617m28.304-18.756l-11.426-17.36h10.98l6.888 11.298 6.95-11.3H293.4l-11.554 17.362 12.092 18.123h-11.013l-7.46-12.156-7.49 12.157h-10.98l12.03-18.123m65.56-7.934h18.408v24.057c-2.983.974-5.792 1.656-8.426 2.047-2.635.392-5.327.587-8.078.587-7.004 0-12.352-2.056-16.044-6.172-3.693-4.115-5.54-10.024-5.54-17.725 0-7.49 2.144-13.33 6.428-17.52 4.285-4.19 10.225-6.284 17.82-6.284 4.762 0 9.354.95 13.776 2.855l-3.27 7.87c-3.385-1.69-6.908-2.538-10.568-2.538-4.253 0-7.66 1.43-10.22 4.285-2.56 2.856-3.84 6.697-3.84 11.52 0 5.037 1.03 8.882 3.094 11.538 2.063 2.655 5.063 3.983 8.998 3.983 2.053 0 4.137-.212 6.253-.635v-9.68h-8.792V44.63m48.49-10.093c1.313 0 2.402.095 3.27.285l-.73 9.078c-.783-.212-1.735-.318-2.857-.318-3.09 0-5.496.794-7.22 2.38-1.724 1.587-2.587 3.81-2.587 6.666v18.06h-9.68V35.202h7.333l1.428 5.967h.477c1.1-1.99 2.587-3.592 4.46-4.808 1.872-1.217 3.908-1.825 6.11-1.825m9.297-8.506c0-3.152 1.756-4.728 5.27-4.728 3.51 0 5.267 1.576 5.267 4.73 0 1.5-.438 2.67-1.316 3.506-.878.836-2.195 1.254-3.95 1.254-3.514 0-5.27-1.587-5.27-4.76m10.093 44.655h-9.68V35.203h9.68v35.484m21.383.634c-4.168 0-7.442-1.617-9.823-4.854-2.38-3.238-3.57-7.723-3.57-13.457 0-5.82 1.21-10.353 3.634-13.6 2.423-3.25 5.76-4.873 10.014-4.873 4.465 0 7.87 1.735 10.22 5.205h.317c-.485-2.645-.73-5.004-.73-7.078V21.302h9.713v49.385h-7.427l-1.872-4.602h-.413c-2.2 3.49-5.553 5.236-10.06 5.236m3.396-7.71c2.476 0 4.29-.72 5.443-2.16 1.152-1.438 1.782-3.882 1.888-7.33V53.07c0-3.81-.587-6.538-1.762-8.19-1.174-1.65-3.084-2.474-5.728-2.474-2.16 0-3.836.915-5.03 2.745-1.196 1.83-1.794 4.49-1.794 7.982s.603 6.11 1.81 7.856c1.205 1.746 2.93 2.62 5.172 2.62z"/></g><g><path d="M179.465 128.064h-9.68V81.662h26.597v8.062h-16.917v11.965h15.742v8.03h-15.742v18.344m45.035-36.15c1.312 0 2.4.095 3.27.285l-.73 9.077c-.784-.212-1.736-.318-2.857-.318-3.09 0-5.496.793-7.22 2.38-1.725 1.587-2.588 3.808-2.588 6.665v18.06h-9.68V92.58h7.332l1.428 5.967h.476c1.1-1.99 2.588-3.592 4.46-4.808 1.873-1.218 3.91-1.826 6.11-1.826m30.933 36.15l-1.873-4.824h-.254c-1.63 2.052-3.306 3.475-5.03 4.268-1.725.794-3.973 1.19-6.745 1.19-3.405 0-6.087-.973-8.044-2.92-1.958-1.946-2.936-4.718-2.936-8.315 0-3.766 1.317-6.543 3.95-8.33 2.635-1.79 6.608-2.778 11.92-2.97l6.156-.19v-1.554c0-3.598-1.84-5.397-5.522-5.397-2.836 0-6.168.857-9.998 2.57l-3.205-6.537c4.084-2.137 8.612-3.206 13.585-3.206 4.76 0 8.41 1.037 10.95 3.11 2.538 2.074 3.808 5.227 3.808 9.46v23.644h-6.76m-2.857-16.44l-3.745.126c-2.813.085-4.908.593-6.283 1.524-1.376.93-2.063 2.348-2.063 4.253 0 2.73 1.566 4.094 4.697 4.094 2.244 0 4.037-.644 5.38-1.935 1.344-1.29 2.016-3.005 2.016-5.142v-2.92m51.342 16.44h-9.68V107.34c0-2.562-.428-4.482-1.285-5.762-.857-1.28-2.206-1.92-4.047-1.92-2.475 0-4.274.91-5.395 2.73-1.12 1.82-1.68 4.813-1.68 8.98v16.696h-9.682V92.58h7.395l1.302 4.54h.54c.95-1.63 2.327-2.905 4.125-3.826 1.8-.92 3.862-1.38 6.19-1.38 5.31 0 8.907 1.735 10.79 5.205h.857c.952-1.65 2.354-2.932 4.205-3.84 1.852-.91 3.94-1.366 6.27-1.366 4.02 0 7.06 1.03 9.123 3.094 2.063 2.063 3.095 5.37 3.095 9.92v23.136h-9.712V107.34c0-2.562-.428-4.482-1.285-5.762-.857-1.28-2.206-1.92-4.047-1.92-2.37 0-4.142.846-5.316 2.54-1.174 1.692-1.762 4.38-1.762 8.06v17.806M350.656 98.8c-2.053 0-3.66.652-4.825 1.953-1.162 1.3-1.83 3.147-1.998 5.538h13.584c-.042-2.39-.667-4.236-1.873-5.537-1.206-1.3-2.835-1.952-4.887-1.952m1.364 29.9c-5.712 0-10.177-1.578-13.393-4.73-3.216-3.153-4.824-7.618-4.824-13.394 0-5.946 1.486-10.542 4.46-13.79 2.972-3.248 7.082-4.872 12.33-4.872 5.014 0 8.918 1.428 11.71 4.284 2.794 2.857 4.19 6.803 4.19 11.84v4.696H343.61c.106 2.75.92 4.898 2.444 6.443 1.523 1.545 3.66 2.317 6.41 2.317 2.138 0 4.158-.222 6.063-.667 1.904-.444 3.893-1.153 5.967-2.126v7.49c-1.693.848-3.502 1.477-5.428 1.89-1.925.412-4.274.62-7.046.62m50.202-.636l-2.73-12.41-3.68-15.68h-.223l-6.476 28.09h-10.41L368.61 92.58h9.65l4.094 15.71c.656 2.815 1.322 6.698 2 11.65h.19c.085-1.61.455-4.16 1.11-7.65l.51-2.698 4.378-17.012h10.664l4.158 17.012c.085.466.217 1.153.397 2.063.18.91.355 1.878.525 2.904.17 1.025.322 2.03.46 3.014.137.984.217 1.772.238 2.365h.19c.19-1.525.53-3.614 1.016-6.27.486-2.655.835-4.448 1.046-5.38l4.253-15.71h9.49l-10.22 35.484H402.22m34.17-17.805c0 3.51.577 6.166 1.73 7.965 1.153 1.798 3.03 2.698 5.633 2.698 2.582 0 4.438-.894 5.57-2.682 1.132-1.787 1.698-4.448 1.698-7.98 0-3.514-.57-6.148-1.713-7.904-1.143-1.756-3.016-2.634-5.618-2.634-2.582 0-4.444.872-5.586 2.618-1.143 1.745-1.714 4.385-1.714 7.92m24.534 0c0 5.775-1.524 10.292-4.57 13.55-3.047 3.26-7.29 4.89-12.728 4.89-3.406 0-6.41-.747-9.013-2.24-2.603-1.49-4.602-3.633-6-6.426-1.395-2.793-2.094-6.05-2.094-9.775 0-5.8 1.514-10.306 4.54-13.522 3.026-3.216 7.28-4.824 12.76-4.824 3.405 0 6.41.74 9.012 2.22 2.603 1.483 4.603 3.61 6 6.38 1.395 2.773 2.094 6.02 2.094 9.745m27.793-18.346c1.31 0 2.4.095 3.268.285l-.73 9.077c-.783-.212-1.735-.318-2.857-.318-3.088 0-5.495.793-7.22 2.38-1.724 1.587-2.586 3.808-2.586 6.665v18.06h-9.68V92.58h7.332l1.428 5.967h.476c1.1-1.99 2.587-3.592 4.46-4.808 1.872-1.218 3.908-1.826 6.11-1.826m19.01 16.853l4.22-5.396 9.934-10.79h10.918l-14.092 15.393 14.95 20.09h-11.173l-10.22-14.377-4.157 3.333v11.044h-9.68V78.68h9.68v22.025l-.508 8.062h.127z"/></g></svg>
