<?xml version="1.0"?>
<svg version="1.1" xmlns="http://www.w3.org/2000/svg" xmlns:xlink="http://www.w3.org/1999/xlink" width="940" height="310">
    <desc iVinci="yes" version="4.6" gridStep="20" showGrid="no" snapToGrid="no" codePlatform="0"/>
    <g id="Layer1" name="Layer 1" opacity="1">
        <g id="Shape1">
            <desc shapeID="1" type="0" basicInfo-basicType="1" basicInfo-roundedRectRadius="12" basicInfo-polygonSides="6" basicInfo-starPoints="5" bounding="rect(-155.501,-155.5,311.001,311)" text="" font-familyName="Helvetica" font-pixelSize="20" font-bold="0" font-underline="0" font-alignment="1" strokeStyle="0" markerStart="0" markerEnd="0" shadowEnabled="0" shadowOffsetX="0" shadowOffsetY="2" shadowBlur="4" shadowOpacity="160" blurEnabled="0" blurRadius="4" transform="matrix(1.01125,0,0,0.94373,165,155)" pers-center="0,0" pers-size="0,0" pers-start="0,0" pers-end="0,0" locked="0" mesh="" flag=""/>
            <path id="shapePath1" d="M7.74995,8.24998 L322.25,8.24998 L322.25,301.75 L7.74995,301.75 L7.74995,8.24998 Z" style="stroke:none;fill-rule:evenodd;fill:#e22b4a;fill-opacity:1;"/>
        </g>
        <g id="Shape2">
            <desc shapeID="2" type="0" basicInfo-basicType="1" basicInfo-roundedRectRadius="12" basicInfo-polygonSides="6" basicInfo-starPoints="5" bounding="rect(-87.5,-54.5,175,109)" text="" font-familyName="Helvetica" font-pixelSize="20" font-bold="0" font-underline="0" font-alignment="1" strokeStyle="0" markerStart="0" markerEnd="0" shadowEnabled="0" shadowOffsetX="0" shadowOffsetY="2" shadowBlur="4" shadowOpacity="160" blurEnabled="0" blurRadius="4" transform="matrix(0.925714,0,0,1,114.25,87.7499)" pers-center="0,0" pers-size="0,0" pers-start="0,0" pers-end="0,0" locked="0" mesh="" flag=""/>
            <path id="shapePath2" d="M33.25,33.2499 L195.25,33.2499 L195.25,142.25 L33.25,142.25 L33.25,33.2499 Z" style="stroke:none;fill-rule:evenodd;fill:#f7cb34;fill-opacity:1;"/>
        </g>
        <g id="Shape3">
            <desc shapeID="3" type="0" basicInfo-basicType="1" basicInfo-roundedRectRadius="12" basicInfo-polygonSides="6" basicInfo-starPoints="5" bounding="rect(-87.5002,-54.5,175,109)" text="" font-familyName="Helvetica" font-pixelSize="20" font-bold="0" font-underline="0" font-alignment="1" strokeStyle="0" markerStart="0" markerEnd="0" shadowEnabled="0" shadowOffsetX="0" shadowOffsetY="2" shadowBlur="4" shadowOpacity="160" blurEnabled="0" blurRadius="4" transform="matrix(1.50571,0,0,1,165,221.75)" pers-center="0,0" pers-size="0,0" pers-start="0,0" pers-end="0,0" locked="0" mesh="" flag=""/>
            <path id="shapePath3" d="M33.25,167.25 L296.75,167.25 L296.75,276.25 L33.25,276.25 L33.25,167.25 Z" style="stroke:none;fill-rule:evenodd;fill:#f7cb34;fill-opacity:1;"/>
        </g>
        <g id="Shape4">
            <desc shapeID="4" type="2" basicInfo-basicType="0" basicInfo-roundedRectRadius="12" basicInfo-polygonSides="6" basicInfo-starPoints="5" bounding="rect(-238.59,-49.1719,477.18,98.3438)" text="Flex Grid&#10;" font-familyName="Open Sans" font-pixelSize="105" font-bold="0" font-underline="0" font-alignment="0" strokeStyle="0" markerStart="0" markerEnd="0" shadowEnabled="0" shadowOffsetX="0" shadowOffsetY="2" shadowBlur="4" shadowOpacity="160" blurEnabled="0" blurRadius="4" transform="matrix(1,0,0,1,569.202,104.245)" pers-center="0,0" pers-size="0,0" pers-start="0,0" pers-end="0,0" locked="0" mesh="" flag=""/>
            <path id="shapePath4" d="M355.695,145.291 L340.057,145.291 L340.057,70.3354 L383.021,70.3354 L383.021,83.3579 L355.695,83.3579 L355.695,102.687 L381.124,102.687 L381.124,115.658 L355.695,115.658 L355.695,145.291 M412.089,145.291 L396.452,145.291 L396.452,65.5161 L412.089,65.5161 L412.089,145.291 M452.221,98.021 C448.906,98.021 446.308,99.072 444.428,101.174 C442.548,103.276 441.472,106.258 441.198,110.121 L463.141,110.121 C463.073,106.258 462.065,103.276 460.117,101.174 C458.168,99.072 455.536,98.021 452.221,98.021 M454.426,146.317 C445.197,146.317 437.985,143.77 432.79,138.678 C427.595,133.585 424.997,126.373 424.997,117.042 C424.997,107.437 427.398,100.012 432.2,94.7654 C437.003,89.5188 443.642,86.8955 452.119,86.8955 C460.219,86.8955 466.525,89.2026 471.037,93.8169 C475.549,98.4311 477.805,104.806 477.805,112.94 L477.805,120.528 L440.839,120.528 C441.01,124.972 442.326,128.441 444.787,130.936 C447.248,133.431 450.7,134.679 455.143,134.679 C458.596,134.679 461.86,134.32 464.936,133.602 C468.012,132.884 471.225,131.739 474.575,130.167 L474.575,142.267 C471.84,143.634 468.918,144.651 465.807,145.317 C462.697,145.984 458.903,146.317 454.426,146.317 M500.146,116.017 L481.689,87.9722 L499.428,87.9722 L510.554,106.224 L521.782,87.9722 L539.521,87.9722 L520.859,116.017 L540.392,145.291 L522.602,145.291 L510.554,125.655 L498.454,145.291 L480.715,145.291 L500.146,116.017 M606.059,103.199 L635.795,103.199 L635.795,142.062 C630.976,143.634 626.439,144.736 622.183,145.368 C617.928,146.001 613.578,146.317 609.135,146.317 C597.822,146.317 589.183,142.993 583.218,136.345 C577.254,129.697 574.272,120.152 574.272,107.711 C574.272,95.6113 577.733,86.1777 584.654,79.4101 C591.575,72.6426 601.171,69.2588 613.442,69.2588 C621.132,69.2588 628.549,70.7969 635.693,73.873 L630.412,86.5879 C624.943,83.8535 619.252,82.4863 613.339,82.4863 C606.469,82.4863 600.966,84.7934 596.83,89.4077 C592.695,94.022 590.627,100.226 590.627,108.019 C590.627,116.153 592.293,122.365 595.626,126.655 C598.958,130.945 603.803,133.089 610.161,133.089 C613.476,133.089 616.843,132.748 620.261,132.064 L620.261,116.427 L606.059,116.427 L606.059,103.199 M684.397,86.8955 C686.516,86.8955 688.277,87.0493 689.678,87.3569 L688.499,102.02 C687.234,101.678 685.696,101.507 683.885,101.507 C678.894,101.507 675.006,102.789 672.221,105.353 C669.435,107.916 668.042,111.505 668.042,116.119 L668.042,145.291 L652.405,145.291 L652.405,87.9722 L664.248,87.9722 L666.556,97.6108 L667.325,97.6108 C669.102,94.3979 671.503,91.8088 674.528,89.8435 C677.553,87.8782 680.843,86.8955 684.397,86.8955 M699.411,73.1553 C699.411,68.0625 702.247,65.5161 707.921,65.5161 C713.595,65.5161 716.432,68.0625 716.432,73.1553 C716.432,75.582 715.723,77.4704 714.304,78.8205 C712.886,80.1706 710.758,80.8457 707.921,80.8457 C702.247,80.8457 699.411,78.2822 699.411,73.1553 M715.714,145.291 L700.077,145.291 L700.077,87.9722 L715.714,87.9722 L715.714,145.291 M750.258,146.317 C743.524,146.317 738.235,143.702 734.39,138.473 C730.545,133.243 728.622,125.997 728.622,116.734 C728.622,107.335 730.579,100.012 734.492,94.7654 C738.406,89.5188 743.798,86.8955 750.668,86.8955 C757.88,86.8955 763.383,89.6982 767.177,95.3037 L767.689,95.3037 C766.903,91.0312 766.51,87.2202 766.51,83.8706 L766.51,65.5161 L782.199,65.5161 L782.199,145.291 L770.202,145.291 L767.177,137.857 L766.51,137.857 C762.955,143.497 757.538,146.317 750.258,146.317 M755.744,133.858 C759.743,133.858 762.673,132.696 764.536,130.372 C766.399,128.048 767.416,124.1 767.587,118.529 L767.587,116.837 C767.587,110.685 766.638,106.275 764.741,103.609 C762.844,100.943 759.76,99.6103 755.487,99.6103 C752.001,99.6103 749.292,101.089 747.361,104.045 C745.43,107.002 744.464,111.3 744.464,116.939 C744.464,122.579 745.438,126.809 747.387,129.629 C749.335,132.448 752.12,133.858 755.744,133.858 Z" style="stroke:none;fill-rule:nonzero;fill:#000000;fill-opacity:1;"/>
        </g>
        <g id="Shape5">
            <desc shapeID="5" type="2" basicInfo-basicType="0" basicInfo-roundedRectRadius="12" basicInfo-polygonSides="6" basicInfo-starPoints="5" bounding="rect(-300.174,-60.1907,600.348,120.381)" text="Framework" font-familyName="Open Sans" font-pixelSize="105" font-bold="0" font-underline="0" font-alignment="1" strokeStyle="0" markerStart="0" markerEnd="0" shadowEnabled="0" shadowOffsetX="0" shadowOffsetY="2" shadowBlur="4" shadowOpacity="160" blurEnabled="0" blurRadius="4" transform="matrix(1,0,0,1,629.467,202.427)" pers-center="0,0" pers-size="0,0" pers-start="0,0" pers-end="0,0" locked="0" mesh="" flag=""/>
            <path id="shapePath5" d="M355.898,243.459 L340.26,243.459 L340.26,168.502 L383.224,168.502 L383.224,181.525 L355.898,181.525 L355.898,200.854 L381.327,200.854 L381.327,213.825 L355.898,213.825 L355.898,243.459 M428.647,185.063 C430.766,185.063 432.527,185.216 433.928,185.524 L432.749,200.187 C431.484,199.845 429.946,199.674 428.134,199.674 C423.144,199.674 419.256,200.956 416.471,203.52 C413.685,206.083 412.292,209.672 412.292,214.286 L412.292,243.459 L396.655,243.459 L396.655,186.139 L408.498,186.139 L410.805,195.778 L411.574,195.778 C413.352,192.565 415.753,189.976 418.778,188.011 C421.803,186.045 425.092,185.063 428.647,185.063 M478.634,243.459 L475.61,235.666 L475.199,235.666 C472.568,238.981 469.859,241.28 467.073,242.561 C464.288,243.843 460.656,244.484 456.178,244.484 C450.675,244.484 446.343,242.912 443.182,239.767 C440.02,236.623 438.439,232.145 438.439,226.335 C438.439,220.251 440.567,215.764 444.822,212.876 C449.078,209.988 455.495,208.39 464.074,208.083 L474.02,207.775 L474.02,205.263 C474.02,199.452 471.047,196.547 465.099,196.547 C460.519,196.547 455.136,197.931 448.949,200.7 L443.771,190.138 C450.368,186.686 457.682,184.96 465.715,184.96 C473.405,184.96 479.301,186.635 483.403,189.984 C487.504,193.334 489.555,198.427 489.555,205.263 L489.555,243.459 L478.634,243.459 M474.02,216.901 L467.97,217.106 C463.424,217.243 460.041,218.063 457.819,219.567 C455.597,221.071 454.487,223.361 454.487,226.437 C454.487,230.846 457.016,233.051 462.074,233.051 C465.697,233.051 468.594,232.008 470.765,229.923 C472.935,227.838 474.02,225.07 474.02,221.618 L474.02,216.901 M556.96,243.459 L541.323,243.459 L541.323,209.98 C541.323,205.844 540.631,202.742 539.247,200.674 C537.862,198.606 535.683,197.572 532.71,197.572 C528.711,197.572 525.805,199.042 523.994,201.981 C522.182,204.921 521.277,209.757 521.277,216.491 L521.277,243.459 L505.639,243.459 L505.639,186.139 L517.585,186.139 L519.687,193.471 L520.559,193.471 C522.097,190.839 524.319,188.78 527.224,187.293 C530.129,185.806 533.462,185.063 537.221,185.063 C545.8,185.063 551.611,187.865 554.653,193.471 L556.037,193.471 C557.575,190.805 559.84,188.737 562.831,187.267 C565.821,185.797 569.196,185.063 572.956,185.063 C579.45,185.063 584.364,186.729 587.696,190.061 C591.029,193.394 592.695,198.734 592.695,206.083 L592.695,243.459 L577.007,243.459 L577.007,209.98 C577.007,205.844 576.314,202.742 574.93,200.674 C573.546,198.606 571.367,197.572 568.393,197.572 C564.565,197.572 561.703,198.939 559.806,201.674 C557.909,204.408 556.96,208.749 556.96,214.696 L556.96,243.459 M632.471,196.188 C629.155,196.188 626.558,197.239 624.678,199.341 C622.798,201.443 621.721,204.425 621.448,208.288 L643.391,208.288 C643.323,204.425 642.315,201.443 640.366,199.341 C638.418,197.239 635.786,196.188 632.471,196.188 M634.675,244.484 C625.447,244.484 618.235,241.938 613.04,236.845 C607.844,231.752 605.247,224.54 605.247,215.209 C605.247,205.605 607.648,198.179 612.45,192.932 C617.252,187.686 623.892,185.063 632.368,185.063 C640.469,185.063 646.775,187.37 651.287,191.984 C655.799,196.598 658.054,202.973 658.054,211.107 L658.054,218.695 L621.089,218.695 C621.26,223.139 622.576,226.608 625.037,229.103 C627.498,231.598 630.95,232.846 635.393,232.846 C638.845,232.846 642.11,232.487 645.186,231.769 C648.262,231.051 651.475,229.906 654.824,228.334 L654.824,240.434 C652.09,241.801 649.168,242.818 646.057,243.484 C642.947,244.151 639.153,244.484 634.675,244.484 M715.772,243.459 L711.362,223.412 L705.415,198.085 L705.056,198.085 L694.597,243.459 L677.781,243.459 L661.477,186.139 L677.063,186.139 L683.677,211.518 C684.737,216.064 685.813,222.335 686.907,230.334 L687.215,230.334 C687.351,227.736 687.949,223.617 689.009,217.978 L689.829,213.62 L696.904,186.139 L714.131,186.139 L720.847,213.62 C720.984,214.372 721.198,215.482 721.488,216.952 C721.779,218.422 722.061,219.986 722.334,221.643 C722.608,223.301 722.855,224.925 723.078,226.514 C723.3,228.103 723.428,229.376 723.462,230.334 L723.77,230.334 C724.077,227.873 724.624,224.497 725.41,220.208 C726.196,215.918 726.76,213.022 727.102,211.518 L733.972,186.139 L749.302,186.139 L732.793,243.459 L715.772,243.459 M770.989,214.696 C770.989,220.37 771.92,224.66 773.783,227.565 C775.646,230.47 778.679,231.923 782.883,231.923 C787.053,231.923 790.052,230.479 791.881,227.591 C793.709,224.702 794.624,220.404 794.624,214.696 C794.624,209.022 793.701,204.767 791.855,201.93 C790.01,199.093 786.985,197.675 782.781,197.675 C778.611,197.675 775.603,199.085 773.757,201.905 C771.911,204.724 770.989,208.988 770.989,214.696 M810.62,214.696 C810.62,224.027 808.159,231.325 803.237,236.588 C798.315,241.852 791.462,244.484 782.678,244.484 C777.175,244.484 772.322,243.279 768.117,240.869 C763.913,238.46 760.683,234.999 758.427,230.487 C756.172,225.976 755.044,220.712 755.044,214.696 C755.044,205.331 757.487,198.051 762.375,192.855 C767.263,187.66 774.133,185.063 782.986,185.063 C788.489,185.063 793.342,186.259 797.546,188.651 C801.75,191.044 804.98,194.479 807.236,198.957 C809.492,203.434 810.62,208.681 810.62,214.696 M855.522,185.063 C857.641,185.063 859.402,185.216 860.803,185.524 L859.624,200.187 C858.359,199.845 856.821,199.674 855.01,199.674 C850.019,199.674 846.131,200.956 843.346,203.52 C840.56,206.083 839.167,209.672 839.167,214.286 L839.167,243.459 L823.53,243.459 L823.53,186.139 L835.373,186.139 L837.68,195.778 L838.449,195.778 C840.227,192.565 842.628,189.976 845.653,188.011 C848.678,186.045 851.968,185.063 855.522,185.063 M886.224,212.287 L893.043,203.571 L909.09,186.139 L926.727,186.139 L903.963,211.005 L928.111,243.459 L910.064,243.459 L893.555,220.233 L886.839,225.617 L886.839,243.459 L871.202,243.459 L871.202,163.683 L886.839,163.683 L886.839,199.264 L886.019,212.287 L886.224,212.287 Z" style="stroke:none;fill-rule:nonzero;fill:#000000;fill-opacity:1;"/>
        </g>
    </g>
</svg>
